<svg xmlns="http://www.w3.org/2000/svg" version="1.1" xmlns:xlink="http://www.w3.org/1999/xlink" xmlns:svgjs="http://svgjs.dev/svgjs" width="1000" height="1000" viewBox="0 0 1000 1000"><rect width="1000" height="1000" fill="#ffffff"></rect><g transform="matrix(0.7,0,0,0.7,149.57575757575756,252.30255000000002)"><svg viewBox="0 0 396 280" data-background-color="#ffffff" preserveAspectRatio="xMidYMid meet" height="707" width="1000" xmlns="http://www.w3.org/2000/svg" xmlns:xlink="http://www.w3.org/1999/xlink"><g id="tight-bounds" transform="matrix(1,0,0,1,0.2400000000000091,0.13999999999998636)"><svg viewBox="0 0 395.52 279.72" height="279.72" width="395.52"><g><svg viewBox="0 0 395.52 279.72" height="279.72" width="395.52"><g><svg viewBox="0 0 395.52 279.72" height="279.72" width="395.52"><g><svg viewBox="0 0 395.52 279.72" height="279.72" width="395.52"><g><svg viewBox="0 0 395.52 279.72" height="279.72" width="395.52"><g transform="matrix(1,0,0,1,81.22880246045696,47.21133399503262)"><svg viewBox="0 0 233.06239507908606 185.2973320099348" height="185.2973320099348" width="233.06239507908606"><g><circle r="82" cx="116.53119753954303" cy="92.6486660049674" fill="#000000" data-fill-palette-color="accent"></circle><svg xmlns="http://www.w3.org/2000/svg" xmlns:xlink="http://www.w3.org/1999/xlink" version="1.1" x="34.95935926186291" y="34.95935926186291" viewBox="1 6.182894706726074 96.25 85.19911193847656" enable-background="new 0 0 100 100" xml:space="preserve" height="115.37861348620898" width="163.14367655536023" class="icon-o-0" data-fill-palette-color="quaternary" id="o-0"><g fill="#ffffff" data-fill-palette-color="quaternary"><path fill="#ffffff" d="M83.58 54.575c0 4.083-3.301 7.393-7.369 7.393h-25.49c-4.07 0-7.371-3.31-7.371-7.393v-5.082c0-4.083 3.3-7.392 7.371-7.392h25.49c4.068 0 7.369 3.31 7.369 7.392V54.575z" data-fill-palette-color="quaternary"></path><path fill="#ffffff" d="M97.25 85.376c0 3.316-2.689 6.006-6.006 6.006l0 0c-3.316 0-6.006-2.689-6.006-6.006V48.263c0-3.317 2.689-6.007 6.006-6.007l0 0c3.316 0 6.006 2.689 6.006 6.007V85.376z" data-fill-palette-color="quaternary"></path><path fill="#ffffff" d="M13.012 83.833c0 4.169-2.689 7.549-6.006 7.549l0 0C3.688 91.382 1 88.002 1 83.833V37.178c0-4.169 2.688-7.55 6.006-7.55l0 0c3.317 0 6.006 3.38 6.006 7.55V83.833z" data-fill-palette-color="quaternary"></path><path fill="#ffffff" d="M14.768 77.444c-6.285 0-11.38-2.689-11.38-6.006l0 0c0-3.316 5.095-6.005 11.38-6.005H85.1c6.287 0 11.381 2.688 11.381 6.005l0 0c0 3.316-5.094 6.006-11.381 6.006H14.768z" data-fill-palette-color="quaternary"></path><polygon fill="#ffffff" points="83.545,52.191 83.545,62.122 43.042,62.122 43.042,42.102 51.643,42.102  " data-fill-palette-color="quaternary"></polygon><path fill="#ffffff" d="M41.339 58.887c0 1.617-1.272 2.927-2.841 2.927H17.856c-1.569 0-2.842-1.31-2.842-2.927l0 0c0-1.615 1.272-2.925 2.842-2.925h20.642C40.067 55.962 41.339 57.271 41.339 58.887L41.339 58.887z" data-fill-palette-color="quaternary"></path><path fill="#ffffff" d="M41.502 57.8c0 2.133-1.621 3.86-3.619 3.86l0 0c-1.999 0-3.619-1.728-3.619-3.86V45.973c0-2.132 1.62-3.86 3.619-3.86l0 0c1.998 0 3.619 1.728 3.619 3.86V57.8z" data-fill-palette-color="quaternary"></path><circle fill="#ffffff" cx="24.254" cy="45.334" r="9.1" data-fill-palette-color="quaternary"></circle><path fill="#ffffff" d="M56.574 17.426c0 0-1.381-3.429-6.43-3.237 0 0-7.286 0.57-7.286 7.476 0 0 0.096 7.334 7.477 7.334 7.381 0 27.953 0 27.953 0s6.906 0.667 6.906-7.286c0 0 0.143-6.858-6.953-6.955 0 0-2.047-0.142-3.191 0.573 0 0-1.236-9.191-11.332-9.145 0 0-7.193-0.428-10.908 8.764" data-fill-palette-color="quaternary"></path><circle fill="#ffffff" cx="37.987" cy="32.817" r="3.7" data-fill-palette-color="quaternary"></circle></g></svg></g></svg></g><path d="M85.496 112.693L59.015 102.849 62.517 93.429C63.383 91.1 64.457 89.168 65.739 87.633 67.023 86.092 68.439 84.93 69.987 84.148 71.535 83.365 73.173 82.95 74.9 82.903 76.636 82.851 78.385 83.153 80.146 83.808V83.808C81.256 84.221 82.331 84.76 83.369 85.426 84.414 86.095 85.359 86.885 86.206 87.796 87.055 88.7 87.789 89.72 88.409 90.856 89.028 91.991 89.475 93.235 89.748 94.587 90.019 95.945 90.085 97.402 89.944 98.959 89.801 100.522 89.405 102.178 88.755 103.926V103.926ZM63.864 99.544L83.983 107.023 85.823 102.072C86.424 100.456 86.678 98.952 86.585 97.559 86.492 96.167 86.13 94.908 85.5 93.783 84.869 92.658 84.001 91.67 82.894 90.821 81.794 89.974 80.524 89.282 79.085 88.748V88.748C77.52 88.166 76.046 87.869 74.663 87.858 73.285 87.856 72.013 88.127 70.849 88.67 69.681 89.221 68.647 90.043 67.744 91.137 66.838 92.223 66.086 93.567 65.491 95.17V95.17ZM114.362 62.465L103.798 75.55 81.817 57.803 92.616 44.428 94.857 47.055 87.465 56.21 94.098 61.565 100.639 53.463 102.814 56.011 96.66 63.634 104.165 69.693 112.121 59.838ZM132.203 44.94V44.94C132.84 44.511 133.377 44.031 133.814 43.5 134.254 42.959 134.573 42.403 134.772 41.83 134.972 41.248 135.038 40.66 134.969 40.064 134.9 39.469 134.678 38.892 134.301 38.334V38.334C133.857 37.675 133.324 37.223 132.702 36.976 132.075 36.733 131.385 36.613 130.633 36.618 129.875 36.626 129.072 36.712 128.225 36.878 127.373 37.047 126.507 37.22 125.628 37.399 124.746 37.572 123.859 37.708 122.966 37.806 122.069 37.908 121.196 37.892 120.35 37.756 119.497 37.625 118.689 37.329 117.924 36.871 117.16 36.412 116.457 35.708 115.817 34.759V34.759C115.12 33.726 114.69 32.668 114.527 31.584 114.37 30.496 114.455 29.423 114.781 28.366 115.104 27.304 115.658 26.288 116.442 25.32 117.232 24.348 118.225 23.459 119.419 22.653V22.653C119.771 22.416 120.185 22.157 120.662 21.876 121.142 21.601 121.664 21.321 122.228 21.038 122.802 20.757 123.411 20.48 124.056 20.207 124.701 19.935 125.369 19.691 126.061 19.476V19.476L127.531 22.992 127.337 23.354C126.6 23.478 125.907 23.637 125.258 23.831 124.611 24.016 124.012 24.217 123.46 24.435 122.909 24.653 122.411 24.879 121.968 25.113 121.534 25.349 121.161 25.572 120.849 25.783V25.783C120.263 26.179 119.775 26.605 119.385 27.063 118.999 27.527 118.729 28.005 118.575 28.499 118.421 28.993 118.382 29.495 118.457 30.004 118.531 30.523 118.738 31.034 119.077 31.536V31.536C119.529 32.206 120.077 32.669 120.72 32.925 121.359 33.184 122.06 33.321 122.824 33.333 123.582 33.349 124.389 33.276 125.246 33.112 126.104 32.939 126.982 32.765 127.879 32.591 128.773 32.41 129.666 32.266 130.56 32.158 131.46 32.047 132.325 32.052 133.155 32.174 133.99 32.293 134.781 32.563 135.529 32.985 136.277 33.406 136.948 34.058 137.543 34.94V34.94C138.213 35.934 138.636 37.005 138.81 38.155 138.983 39.314 138.91 40.476 138.592 41.641 138.271 42.816 137.704 43.95 136.891 45.043 136.086 46.138 135.028 47.128 133.716 48.013V48.013C133.18 48.375 132.597 48.72 131.966 49.048 131.331 49.371 130.666 49.674 129.97 49.956 129.285 50.24 128.577 50.486 127.848 50.693 127.123 50.907 126.398 51.079 125.675 51.21V51.21L124.206 47.643 124.417 47.27C125.959 47.123 127.391 46.867 128.713 46.503 130.035 46.139 131.198 45.618 132.203 44.94ZM152.652 6.935L162.545 33.397 158.06 35.074 148.167 8.612ZM202.061 14.525L202.994 26.508C201.255 27.339 199.591 27.955 198.001 28.356 196.405 28.757 194.915 29.011 193.532 29.119V29.119C191.276 29.295 189.234 29.129 187.405 28.623 185.582 28.11 184.003 27.311 182.669 26.226 181.328 25.135 180.266 23.776 179.485 22.148 178.703 20.521 178.231 18.673 178.07 16.605V16.605C177.945 14.994 178.026 13.482 178.315 12.068 178.603 10.647 179.055 9.342 179.671 8.153 180.289 6.97 181.057 5.904 181.976 4.954 182.894 4.005 183.921 3.185 185.056 2.496 186.185 1.807 187.405 1.256 188.717 0.843 190.029 0.437 191.39 0.179 192.8 0.069V0.069C193.257 0.034 193.768 0.011 194.335 0.001 194.902-0.003 195.507 0.011 196.151 0.041 196.789 0.08 197.456 0.139 198.151 0.22 198.839 0.302 199.538 0.42 200.245 0.574V0.574L199.778 4.338 199.411 4.559C198.019 4.04 196.724 3.715 195.526 3.585 194.327 3.463 193.302 3.434 192.449 3.501V3.501C190.885 3.623 189.49 4.011 188.265 4.667 187.039 5.323 186.008 6.177 185.172 7.228 184.335 8.279 183.723 9.492 183.337 10.866 182.945 12.248 182.81 13.727 182.933 15.305V15.305C183.05 16.802 183.389 18.207 183.95 19.521 184.511 20.828 185.268 21.961 186.221 22.921 187.174 23.88 188.301 24.609 189.603 25.109 190.905 25.615 192.362 25.806 193.973 25.68V25.68C194.658 25.627 195.402 25.512 196.206 25.334 197.009 25.157 197.797 24.91 198.569 24.593V24.593L197.811 14.856ZM224.049 31.796L220.086 30.703 227.596 3.468 234.101 5.262 240.906 25.799 241.833 29.921 242.203 30.023 243.079 25.895 247.733 9.021 251.696 10.114 244.185 37.348 239.852 36.154 231.656 11.545 230.851 7.624 230.481 7.522 229.631 11.552ZM298.05 40.239L279.414 61.472 275.815 58.313 294.452 37.081ZM317.99 71.341L297.104 84.818 294.502 80.787 315.389 67.31 310.422 59.612 313.619 58.307 325.968 77.445 322.771 78.751ZM319.192 108.064L318.083 104.878 334.818 98.112 336.505 102.958ZM308.631 109.986V109.986C308.483 109.56 308.427 109.134 308.464 108.707 308.495 108.283 308.599 107.887 308.778 107.518 308.956 107.149 309.205 106.82 309.525 106.531 309.838 106.243 310.202 106.028 310.615 105.884V105.884C311.041 105.736 311.474 105.678 311.913 105.71 312.352 105.743 312.763 105.849 313.147 106.029 313.531 106.21 313.867 106.46 314.157 106.779 314.453 107.097 314.675 107.469 314.823 107.895V107.895C314.971 108.321 315.027 108.747 314.99 109.174 314.959 109.598 314.849 109.997 314.658 110.37 314.467 110.743 314.211 111.074 313.891 111.364 313.565 111.655 313.192 111.874 312.772 112.02V112.02C312.346 112.169 311.92 112.224 311.494 112.187 311.061 112.153 310.659 112.043 310.288 111.858 309.917 111.674 309.587 111.422 309.298 111.102 309.002 110.784 308.78 110.412 308.631 109.986ZM69.6 182.997L85.2 177.925 87.005 183.477C87.45 184.848 87.657 186.115 87.625 187.28 87.599 188.442 87.374 189.482 86.95 190.399 86.53 191.307 85.933 192.085 85.16 192.733 84.393 193.379 83.491 193.871 82.453 194.208V194.208C81.8 194.42 81.116 194.561 80.403 194.63 79.684 194.708 78.971 194.692 78.263 194.582 77.548 194.475 76.843 194.276 76.146 193.985 75.456 193.693 74.808 193.288 74.201 192.77 73.585 192.248 73.026 191.608 72.525 190.851 72.03 190.091 71.615 189.196 71.28 188.165V188.165ZM84.185 181.176L72.332 185.029 73.281 187.949C73.592 188.904 74.017 189.679 74.558 190.275 75.107 190.875 75.729 191.317 76.423 191.601 77.111 191.888 77.86 192.026 78.672 192.017 79.481 192.002 80.308 191.857 81.153 191.582V191.582C82.076 191.282 82.853 190.885 83.484 190.389 84.116 189.893 84.597 189.312 84.925 188.646 85.26 187.978 85.435 187.231 85.45 186.404 85.473 185.583 85.331 184.701 85.025 183.76V183.76ZM80.295 209.876L76.119 201.047 90.947 194.033 95.214 203.054 93.274 203.558 90.354 197.386 85.88 199.502 88.467 204.971 86.577 205.463 84.145 200.323 79.087 202.715 82.235 209.372ZM86.526 216.694V216.694C86.764 217.078 87.032 217.403 87.332 217.669 87.631 217.935 87.947 218.131 88.279 218.259 88.605 218.389 88.942 218.442 89.291 218.416 89.639 218.391 89.979 218.275 90.312 218.069V218.069C90.707 217.825 90.983 217.523 91.141 217.164 91.293 216.809 91.377 216.413 91.391 215.976 91.406 215.539 91.374 215.072 91.296 214.574 91.218 214.076 91.138 213.571 91.059 213.058 90.975 212.539 90.914 212.019 90.876 211.496 90.841 210.979 90.87 210.475 90.961 209.982 91.062 209.493 91.254 209.029 91.538 208.592 91.819 208.164 92.244 207.775 92.811 207.424V207.424C93.429 207.042 94.054 206.817 94.686 206.751 95.318 206.684 95.937 206.757 96.543 206.968 97.149 207.179 97.726 207.522 98.274 207.999 98.816 208.479 99.309 209.077 99.752 209.792V209.792C99.879 209.998 100.02 210.244 100.173 210.53 100.322 210.81 100.471 211.121 100.62 211.464 100.771 211.798 100.917 212.155 101.058 212.536 101.207 212.918 101.337 213.313 101.446 213.721V213.721L99.366 214.485 99.16 214.364C99.109 213.936 99.033 213.531 98.932 213.151 98.84 212.772 98.737 212.42 98.623 212.095 98.509 211.769 98.39 211.475 98.266 211.211 98.14 210.956 98.019 210.734 97.902 210.545V210.545C97.685 210.196 97.451 209.906 97.197 209.675 96.934 209.442 96.663 209.273 96.384 209.168 96.1 209.067 95.805 209.032 95.499 209.063 95.203 209.096 94.906 209.204 94.608 209.388V209.388C94.207 209.636 93.925 209.942 93.761 210.304 93.596 210.676 93.501 211.079 93.477 211.514 93.45 211.958 93.476 212.429 93.555 212.927 93.631 213.434 93.711 213.946 93.794 214.465 93.875 214.993 93.938 215.516 93.982 216.035 94.021 216.558 93.995 217.061 93.906 217.544 93.822 218.023 93.65 218.474 93.389 218.897 93.128 219.32 92.734 219.694 92.208 220.02V220.02C91.618 220.385 90.986 220.606 90.313 220.682 89.639 220.758 88.968 220.691 88.299 220.479 87.626 220.262 86.98 219.909 86.361 219.421 85.745 218.924 85.194 218.283 84.708 217.499V217.499C84.513 217.184 84.328 216.839 84.152 216.465 83.976 216.091 83.816 215.699 83.673 215.288 83.524 214.882 83.397 214.465 83.292 214.039 83.187 213.614 83.103 213.19 83.041 212.77V212.77L85.147 211.989 85.358 212.119C85.404 213.025 85.52 213.864 85.705 214.637 85.884 215.413 86.158 216.099 86.526 216.694ZM105.484 218.5L92.238 228.175 90.6 225.932 103.846 216.257ZM110.288 236.707L105.101 241.377C104.102 240.872 103.23 240.321 102.484 239.724 101.738 239.136 101.095 238.542 100.554 237.942V237.942C99.675 236.966 99.029 235.966 98.616 234.944 98.206 233.926 98.014 232.917 98.038 231.917 98.071 230.917 98.322 229.948 98.791 229.009 99.264 228.076 99.949 227.206 100.845 226.399V226.399C101.54 225.773 102.265 225.275 103.018 224.904 103.772 224.534 104.532 224.28 105.297 224.144 106.062 224.008 106.826 223.986 107.589 224.078 108.352 224.161 109.091 224.343 109.806 224.624 110.526 224.9 111.212 225.265 111.866 225.719 112.518 226.182 113.12 226.719 113.669 227.33V227.33C113.849 227.53 114.04 227.757 114.241 228.01 114.447 228.269 114.654 228.554 114.862 228.865 115.075 229.172 115.284 229.5 115.49 229.849 115.696 230.189 115.889 230.55 116.069 230.931V230.931L114.172 232.055 113.941 231.964C113.684 231.135 113.374 230.423 113.009 229.827 112.645 229.231 112.296 228.747 111.962 228.377V228.377C111.354 227.702 110.682 227.197 109.946 226.862 109.21 226.528 108.454 226.357 107.677 226.35 106.896 226.338 106.118 226.485 105.344 226.793 104.574 227.105 103.849 227.568 103.168 228.181V228.181C102.518 228.766 101.99 229.418 101.585 230.136 101.181 230.854 100.927 231.603 100.824 232.385 100.716 233.161 100.778 233.939 101.009 234.719 101.235 235.493 101.664 236.231 102.295 236.932V236.932C102.561 237.227 102.876 237.527 103.242 237.832 103.612 238.143 104.005 238.418 104.421 238.659V238.659L108.632 234.868ZM110.227 246.913L108.391 245.377 118.914 232.794 121.921 235.309 120.574 247.798 120.07 250.194 120.241 250.337 121.694 248.379 128.219 240.577 130.048 242.106 119.524 254.689 117.525 253.017 119.117 238.047 119.632 235.778 119.462 235.635 118.048 237.561ZM147.186 252.028L137.72 257.313 134.215 263.557 131.784 262.192 135.27 255.983 135.058 245.219 137.832 246.777 137.656 252.991 137.428 255.399 137.622 255.508 139.593 254.101 144.869 250.728ZM149.384 268.609V268.609C150.132 268.915 150.872 269.036 151.604 268.972 152.342 268.91 153.036 268.7 153.685 268.339 154.341 267.982 154.931 267.492 155.454 266.87 155.984 266.25 156.417 265.532 156.751 264.715V264.715C157.102 263.855 157.299 263.001 157.341 262.152 157.386 261.312 157.291 260.531 157.056 259.809 156.816 259.078 156.449 258.437 155.955 257.885 155.456 257.325 154.846 256.897 154.123 256.601V256.601C153.369 256.293 152.621 256.172 151.88 256.24 151.146 256.311 150.453 256.529 149.801 256.895 149.149 257.262 148.561 257.756 148.037 258.378 147.511 259.007 147.083 259.723 146.754 260.527V260.527C146.4 261.393 146.201 262.243 146.158 263.077 146.113 263.917 146.209 264.695 146.448 265.411 146.677 266.13 147.042 266.767 147.543 267.321 148.041 267.882 148.655 268.311 149.384 268.609ZM148.283 270.287V270.287C147.616 270.014 147 269.671 146.434 269.258 145.869 268.844 145.371 268.379 144.943 267.862 144.514 267.344 144.16 266.778 143.881 266.162 143.606 265.554 143.417 264.906 143.313 264.216 143.21 263.526 143.208 262.812 143.306 262.074 143.398 261.333 143.601 260.579 143.915 259.813V259.813C144.238 259.021 144.642 258.31 145.126 257.678 145.613 257.041 146.153 256.494 146.746 256.039 147.34 255.583 147.984 255.21 148.678 254.919 149.363 254.632 150.07 254.441 150.8 254.347 151.53 254.252 152.269 254.25 153.019 254.338 153.772 254.435 154.517 254.634 155.252 254.935V254.935C156.237 255.338 157.109 255.891 157.869 256.595 158.625 257.29 159.211 258.097 159.628 259.017 160.041 259.928 160.261 260.928 160.289 262.016 160.313 263.095 160.085 264.221 159.606 265.393V265.393C159.284 266.178 158.885 266.887 158.407 267.521 157.923 268.153 157.386 268.701 156.796 269.165 156.2 269.627 155.561 270.005 154.88 270.301 154.195 270.589 153.486 270.783 152.754 270.883 152.024 270.977 151.281 270.979 150.525 270.888 149.772 270.791 149.025 270.59 148.283 270.287ZM164.771 258.594L167.463 259.276 164.943 269.234C164.76 269.959 164.714 270.621 164.805 271.22 164.898 271.814 165.087 272.33 165.372 272.77 165.656 273.21 166.012 273.575 166.439 273.863 166.866 274.152 167.318 274.357 167.795 274.477V274.477C168.291 274.603 168.78 274.633 169.262 274.567 169.742 274.508 170.188 274.35 170.601 274.093 171.013 273.837 171.379 273.474 171.699 273.006 172.025 272.54 172.275 271.965 172.448 271.279V271.279L175.003 261.184 177.324 261.771 174.809 271.71C174.683 272.206 174.502 272.688 174.266 273.156 174.023 273.622 173.729 274.055 173.385 274.454 173.036 274.845 172.638 275.196 172.191 275.507 171.738 275.816 171.236 276.057 170.685 276.23 170.134 276.403 169.534 276.498 168.884 276.514 168.234 276.53 167.543 276.445 166.812 276.26V276.26C165.905 276.031 165.109 275.687 164.426 275.23 163.739 274.764 163.194 274.199 162.792 273.535 162.384 272.869 162.131 272.113 162.032 271.269 161.933 270.424 162.01 269.502 162.263 268.504V268.504ZM184.736 272.606L182.037 272.297 181.31 278.639 178.55 278.322 180.419 262.026 185.436 262.601C186.326 262.703 187.112 262.908 187.795 263.217 188.478 263.526 189.042 263.902 189.486 264.346 189.929 264.79 190.255 265.289 190.463 265.841 190.665 266.386 190.732 266.956 190.663 267.552V267.552C190.603 268.08 190.449 268.561 190.203 268.993 189.956 269.433 189.657 269.829 189.305 270.182 188.946 270.533 188.554 270.848 188.129 271.124 187.705 271.394 187.286 271.621 186.872 271.804V271.804L190.742 279.72 187.491 279.347ZM182.954 264.299L182.254 270.4 185.606 270.784C185.898 270.662 186.17 270.503 186.423 270.309 186.682 270.115 186.912 269.887 187.111 269.625 187.31 269.37 187.471 269.087 187.595 268.776 187.719 268.465 187.8 268.138 187.839 267.797V267.797C187.886 267.389 187.86 267 187.76 266.629 187.66 266.258 187.485 265.927 187.233 265.633 186.989 265.341 186.665 265.097 186.26 264.902 185.862 264.707 185.386 264.578 184.83 264.514V264.514ZM199.642 279.639L198.762 263.26 204.592 262.947C206.031 262.869 207.309 262.996 208.426 263.327 209.542 263.652 210.489 264.137 211.265 264.783 212.035 265.423 212.633 266.2 213.059 267.114 213.486 268.022 213.728 269.021 213.787 270.11V270.11C213.824 270.796 213.784 271.492 213.666 272.2 213.556 272.914 213.357 273.599 213.069 274.255 212.781 274.918 212.407 275.548 211.946 276.146 211.486 276.737 210.927 277.26 210.271 277.713 209.607 278.173 208.845 278.548 207.984 278.837 207.123 279.119 206.151 279.29 205.068 279.348V279.348ZM201.641 265.078L202.31 277.524 205.376 277.359C206.378 277.305 207.237 277.094 207.952 276.725 208.673 276.349 209.261 275.862 209.714 275.265 210.168 274.674 210.495 273.985 210.696 273.199 210.89 272.413 210.963 271.576 210.915 270.689V270.689C210.863 269.721 210.679 268.867 210.363 268.129 210.047 267.391 209.609 266.777 209.05 266.288 208.491 265.792 207.814 265.43 207.019 265.203 206.231 264.969 205.343 264.879 204.355 264.932V264.932ZM223.001 270.66L220.333 271.172 221.535 277.442 218.808 277.965 215.717 261.855 220.677 260.904C221.557 260.735 222.368 260.696 223.112 260.786 223.857 260.877 224.507 261.067 225.063 261.358 225.619 261.649 226.079 262.027 226.443 262.492 226.798 262.952 227.033 263.476 227.146 264.065V264.065C227.246 264.587 227.243 265.092 227.138 265.578 227.033 266.071 226.866 266.539 226.635 266.981 226.398 267.424 226.118 267.841 225.796 268.232 225.472 268.616 225.139 268.958 224.799 269.256V269.256L230.86 275.653 227.646 276.269ZM218.816 263.266L219.973 269.298 223.286 268.662C223.528 268.458 223.741 268.225 223.924 267.964 224.113 267.701 224.264 267.415 224.376 267.106 224.489 266.803 224.559 266.484 224.584 266.15 224.609 265.817 224.589 265.481 224.524 265.144V265.144C224.447 264.74 224.305 264.377 224.099 264.053 223.893 263.729 223.626 263.465 223.299 263.26 222.978 263.054 222.596 262.918 222.151 262.853 221.713 262.786 221.22 262.805 220.671 262.911V262.911ZM243.692 271.594L234.366 274.495 229.494 258.832 239.023 255.868 239.251 257.86 232.731 259.888 234.201 264.614 239.978 262.817 240.201 264.757 234.771 266.446 236.433 271.789 243.464 269.602ZM257.514 265.352L254.486 262.083 248.507 264.819 249.018 269.239 246.749 270.277 245.216 252.94 248.072 251.633 260.187 264.129ZM248.258 262.844L253.136 260.613 248.837 255.904 247.302 254.029 247.1 254.122 247.524 256.505ZM265.17 260.992L263.144 262.304 255.277 247.856 258.685 245.649 267.343 252.531 269.192 254.234 269.379 254.113 268.589 251.724 265.848 241.008 269.357 238.735 279.335 251.815 276.928 253.375 269.625 243.495 268.176 241.389 267.99 241.51 268.751 243.929 271.948 256.203 269.821 257.582 259.903 249.685 257.978 247.995 257.792 248.116 259.128 250.271ZM288.914 243.182L286.923 245.119 275.485 233.362 277.475 231.425 282.279 236.362 288.121 230.678 283.317 225.741 285.308 223.804 296.747 235.56 294.756 237.497 289.495 232.09 283.653 237.774ZM303.319 224.049V224.049C303.803 223.402 304.107 222.717 304.229 221.992 304.356 221.262 304.327 220.538 304.142 219.819 303.962 219.094 303.637 218.4 303.167 217.736 302.7 217.067 302.115 216.467 301.409 215.938V215.938C300.665 215.381 299.888 214.975 299.078 214.72 298.276 214.465 297.496 214.36 296.738 214.405 295.971 214.453 295.258 214.646 294.599 214.985 293.931 215.326 293.363 215.809 292.894 216.434V216.434C292.405 217.086 292.1 217.779 291.979 218.513 291.862 219.241 291.899 219.967 292.089 220.69 292.279 221.414 292.609 222.107 293.079 222.771 293.554 223.439 294.139 224.033 294.834 224.555V224.555C295.583 225.116 296.355 225.523 297.151 225.774 297.953 226.03 298.73 226.133 299.483 226.083 300.237 226.043 300.945 225.85 301.608 225.505 302.276 225.165 302.846 224.679 303.319 224.049ZM304.664 225.538V225.538C304.232 226.114 303.744 226.624 303.202 227.067 302.659 227.51 302.083 227.874 301.475 228.158 300.866 228.442 300.228 228.641 299.562 228.756 298.904 228.869 298.229 228.889 297.535 228.815 296.842 228.741 296.15 228.563 295.461 228.282 294.767 228.006 294.089 227.619 293.426 227.122V227.122C292.742 226.609 292.156 226.039 291.667 225.411 291.172 224.78 290.78 224.119 290.489 223.43 290.198 222.74 289.999 222.023 289.893 221.278 289.788 220.543 289.782 219.81 289.874 219.081 289.967 218.351 290.151 217.634 290.426 216.931 290.71 216.227 291.09 215.557 291.567 214.921V214.921C292.205 214.07 292.961 213.365 293.833 212.808 294.696 212.251 295.626 211.888 296.621 211.717 297.607 211.547 298.63 211.586 299.689 211.834 300.74 212.083 301.772 212.587 302.784 213.346V213.346C303.463 213.855 304.049 214.421 304.542 215.043 305.031 215.671 305.426 216.328 305.726 217.017 306.022 217.71 306.228 218.424 306.342 219.158 306.447 219.893 306.456 220.628 306.369 221.362 306.276 222.092 306.09 222.811 305.811 223.519 305.527 224.224 305.145 224.896 304.664 225.537ZM312.74 212.75L311.625 214.892 297.655 206.205 299.53 202.603 310.457 204.319 312.906 204.888 313.008 204.691 311.143 203.002 303.472 195.033 305.403 191.324 320.535 197.78 319.211 200.325 307.985 195.333 305.686 194.216 305.583 194.413 307.438 196.142 316.275 205.241 315.104 207.49 302.582 205.513 300.074 204.993 299.971 205.19 302.196 206.406ZM325.37 183.9L322.151 193.122 306.664 187.715 309.953 178.294 311.689 179.296 309.439 185.742 314.112 187.373 316.106 181.661 317.798 182.637 315.924 188.006 321.207 189.85 323.633 182.898ZM67.091 145.912C67.091 144.1 68.56 142.631 70.372 142.631 72.185 142.631 73.654 144.1 73.654 145.912 73.654 147.724 72.185 149.194 70.372 149.194 68.56 149.194 67.091 147.724 67.091 145.912ZM321.373 145.912C321.373 144.1 322.842 142.631 324.655 142.631 326.467 142.631 327.936 144.1 327.936 145.912 327.936 147.724 326.467 149.194 324.655 149.194 322.842 149.194 321.373 147.724 321.373 145.912Z" fill="#000000" data-fill-palette-color="primary"></path></svg></g></svg></g></svg></g><g></g></svg></g><defs></defs></svg><rect width="395.52" height="279.72" fill="none" stroke="none" visibility="hidden"></rect></g></svg></g></svg>